<svg width="28" height="28" viewBox="0 0 28 28" fill="none" xmlns="http://www.w3.org/2000/svg">
<path fill-rule="evenodd" clip-rule="evenodd" d="M14 0C6.26801 0 0 6.26801 0 14C0 21.732 6.26801 28 14 28C21.732 28 28 21.732 28 14C28 6.26801 21.732 0 14 0ZM6.72094 11.5954H9.89365V21.1281H6.72094V11.5954ZM10.1026 8.64657C10.082 7.7119 9.41363 7 8.32827 7C7.24291 7 6.53333 7.7119 6.53333 8.64657C6.53333 9.56188 7.22193 10.2943 8.28709 10.2943H8.30736C9.41363 10.2943 10.1026 9.56188 10.1026 8.64657ZM17.6827 11.3716C19.7705 11.3716 21.3356 12.7343 21.3356 15.6623L21.3355 21.1281H18.1629V16.0281C18.1629 14.7471 17.7038 13.873 16.5553 13.873C15.6788 13.873 15.1567 14.4622 14.9274 15.0314C14.8435 15.2354 14.8229 15.5196 14.8229 15.8045V21.1283H11.6498C11.6498 21.1283 11.6916 12.4901 11.6498 11.5957H14.8229V12.9459C15.244 12.2968 15.9982 11.3716 17.6827 11.3716Z" fill="#3E8E31"/>
</svg>
