<svg width="28" height="28" viewBox="0 0 28 28" fill="none" xmlns="http://www.w3.org/2000/svg">
<path fill-rule="evenodd" clip-rule="evenodd" d="M14 28C6.26801 28 0 21.732 0 14C0 6.26801 6.26801 0 14 0C21.732 0 28 6.26801 28 14C28 21.732 21.732 28 14 28ZM14.1951 13.2143C15.3414 13.2143 20.9151 10.08 20.9151 10.08L20.924 9.51999C20.924 8.90175 20.4223 8.39999 19.8023 8.39999H8.58779C7.96843 8.39999 7.46667 8.90175 7.46667 9.51999V10.019C7.46667 10.019 13.1014 13.2143 14.1951 13.2143ZM7.47563 11.76C7.47507 11.76 13.1014 14.7543 14.1951 14.7543C15.394 14.7543 20.9151 11.76 20.9151 11.76L20.924 18.48C20.924 19.0982 20.4223 19.6 19.8023 19.6H8.58779C7.96899 19.6 7.46667 19.0982 7.46667 18.48L7.47563 11.76Z" fill="#3E8E31"/>
</svg>
