<svg width="28" height="28" viewBox="0 0 28 28" fill="none" xmlns="http://www.w3.org/2000/svg">
<path fill-rule="evenodd" clip-rule="evenodd" d="M0 14C0 21.732 6.26801 28 14 28C21.732 28 28 21.732 28 14C28 6.26801 21.732 0 14 0C6.26801 0 0 6.26801 0 14ZM14.0161 22.4C14.0161 22.4 10.2579 16.7794 8.92749 13.6545C8.5891 12.9261 8.4 12.113 8.4 11.2552C8.4 8.13194 10.9072 5.60001 14 5.60001C17.0928 5.60001 19.6 8.13194 19.6 11.2552C19.6 11.9425 19.4786 12.6012 19.2562 13.2105H19.2622C18.3707 15.5813 14.0161 22.4 14.0161 22.4Z" fill="#3E8E31"/>
</svg>
