<svg width="28" height="28" viewBox="0 0 28 28" fill="none" xmlns="http://www.w3.org/2000/svg">
<path fill-rule="evenodd" clip-rule="evenodd" d="M14 0C6.26801 0 0 6.26801 0 14C0 21.732 6.26801 28 14 28C21.732 28 28 21.732 28 14C28 6.26801 21.732 0 14 0ZM7 13.5795C7 9.94573 10.0123 7 13.7281 7C17.4439 7 20.4562 9.94573 20.4562 13.5795C20.4562 15.2941 19.7854 16.8556 18.6866 18.0266L20.8478 20.1346C21.0504 20.3322 21.0508 20.653 20.8487 20.8512C20.665 21.0313 20.3772 21.048 20.1741 20.9011L20.1159 20.8521L17.9291 18.7191C16.7778 19.6201 15.3173 20.159 13.7281 20.159C10.0123 20.159 7 17.2132 7 13.5795ZM19.4198 13.5795C19.4198 10.5054 16.8715 8.01343 13.7281 8.01343C10.5846 8.01343 8.03629 10.5054 8.03629 13.5795C8.03629 16.6535 10.5846 19.1456 13.7281 19.1456C16.8715 19.1456 19.4198 16.6535 19.4198 13.5795Z" fill="#3E8E31"/>
</svg>
