<svg width="100" height="100" viewBox="0 0 100 100" fill="none" xmlns="http://www.w3.org/2000/svg">
<circle cx="50" cy="50" r="49" stroke="#8374B5" stroke-width="2"/>
<path d="M25.1162 55.6204V69.3514C25.0539 71.1451 25.7888 74.7696 29.2265 74.918C32.6642 75.0665 57.4379 74.9799 69.3951 74.918C71.2634 75.0417 75 74.1016 75 69.3514C75 64.6012 75 58.2182 75 55.6204M40.4363 30.9417C40.374 28.9006 42.1925 24.8555 49.9647 25.004C57.7368 25.1524 59.6799 29.0243 59.6799 30.9417M25.1162 48.3838V37.2505C24.8671 36.4465 24.8546 34.8383 26.7977 34.8383C28.7407 34.8383 57.9984 34.8383 72.3844 34.8383C73.2562 34.8383 75 35.3208 75 37.2505C75 39.1803 75 45.4768 75 48.3838C70.3915 50.796 59.082 55.6204 50.712 55.6204C42.342 55.6204 30.1606 50.796 25.1162 48.3838Z" stroke="#8374B5" stroke-width="2"/>
</svg>
