<svg width="100" height="100" viewBox="0 0 100 100" fill="none" xmlns="http://www.w3.org/2000/svg">
<circle cx="50" cy="50" r="49" stroke="#51CAF4" stroke-width="2"/>
<path d="M44.6223 53.1293C38.1799 60.8602 33.706 62.793 30.4847 66.909C27.7646 70.6313 30.6637 73.1725 32.2743 74.4252C35.6745 76.7516 41.0432 75.7972 43.5486 74.7831C48.7383 72.6825 54.7019 74.2355 56.9704 74.7831C61.1222 75.7852 64.5462 75.2007 65.7392 74.7831C72.8975 71.9198 70.0342 67.0137 66.9919 65.1194C57.5072 59.2138 59.6547 58.8559 54.107 53.1293C49.6689 48.548 45.9347 51.2204 44.6223 53.1293Z" stroke="#51CAF4" stroke-width="2"/>
<path d="M24.3077 43.3412C19.783 50.6118 23.3533 56.9505 25.7041 59.211C29.8331 62.355 32.5018 60.4392 35.1516 56.725C37.2714 53.7536 36.5119 48.9523 35.8672 46.9231C33.8994 42.6997 28.8325 36.0705 24.3077 43.3412Z" stroke="#51CAF4" stroke-width="2"/>
<path d="M38.3391 27.792C33.042 34.5207 35.8934 41.2137 37.9812 43.7191C41.7393 47.2982 44.6026 45.6877 47.6448 42.2875C50.0787 39.5673 49.852 34.7116 49.4344 32.6238C47.9431 28.2095 43.6362 21.0632 38.3391 27.792Z" stroke="#51CAF4" stroke-width="2"/>
<path d="M56.2698 27.7728C50.9417 34.4771 53.7622 41.1831 55.8385 43.6981C59.58 47.2946 62.4507 45.6972 65.5086 42.3111C67.955 39.6022 67.7507 34.7455 67.3428 32.6557C65.8718 28.2346 61.5979 21.0685 56.2698 27.7728Z" stroke="#51CAF4" stroke-width="2"/>
<path d="M69.3122 44.5416C62.5315 49.7721 63.6611 56.959 65.0735 59.8986C67.8432 64.2874 71.0132 63.4253 74.7941 60.8715C77.8188 58.8285 78.7854 54.0646 78.8906 51.938C78.5231 47.2931 76.0928 39.311 69.3122 44.5416Z" stroke="#51CAF4" stroke-width="2"/>
</svg>
