<svg width="28" height="28" viewBox="0 0 28 28" fill="none" xmlns="http://www.w3.org/2000/svg">
<path fill-rule="evenodd" clip-rule="evenodd" d="M14 0C6.26801 0 0 6.26801 0 14C0 21.732 6.26801 28 14 28C21.732 28 28 21.732 28 14C28 6.26801 21.732 0 14 0ZM15.1399 18.4195C15.0019 18.565 14.7324 18.5944 14.7324 18.5944H13.8398C13.8398 18.5944 11.8707 18.7105 10.136 16.9382C8.2443 15.0046 6.5739 11.1682 6.5739 11.1682C6.5739 11.1682 6.47749 10.9166 6.58193 10.7954C6.69952 10.6585 7.02017 10.6499 7.02017 10.6499L9.15363 10.6363C9.15363 10.6363 9.35449 10.6685 9.49838 10.7725C9.61743 10.8585 9.6839 11.0184 9.6839 11.0184C9.6839 11.0184 10.0286 11.8744 10.4851 12.6487C11.3769 14.1608 11.7918 14.4913 12.0942 14.3293C12.5353 14.0934 12.4031 12.192 12.4031 12.192C12.4031 12.192 12.4112 11.5023 12.1811 11.1948C12.0029 10.9567 11.6669 10.8872 11.5186 10.8678C11.3981 10.8521 11.5953 10.5782 11.851 10.4556C12.2351 10.2713 12.9129 10.2606 13.7142 10.2685C14.3387 10.2749 14.5183 10.3129 14.7623 10.371C15.3285 10.5051 15.3108 10.9349 15.2727 11.8625C15.2612 12.1399 15.248 12.4618 15.248 12.8337C15.248 12.9173 15.2455 13.0064 15.243 13.098C15.2297 13.5732 15.2146 14.1174 15.5336 14.3199C15.6972 14.4232 16.0967 14.335 17.0966 12.6688C17.5706 11.8787 17.9256 10.9503 17.9256 10.9503C17.9256 10.9503 18.0038 10.7847 18.1243 10.7137C18.2477 10.6413 18.4142 10.6635 18.4142 10.6635L20.6595 10.6499C20.6595 10.6499 21.3343 10.5703 21.4432 10.87C21.5578 11.1833 21.1912 11.916 20.2738 13.1162C19.4036 14.255 18.9801 14.6742 19.019 15.0451C19.0474 15.316 19.3227 15.5611 19.8509 16.0421C20.9537 17.047 21.2492 17.5758 21.3202 17.7028C21.3261 17.7133 21.3305 17.7211 21.3336 17.7262C21.8281 18.5313 20.7851 18.5944 20.7851 18.5944L18.7904 18.6216C18.7904 18.6216 18.3624 18.7048 17.7985 18.3248C17.5032 18.1259 17.2145 17.8011 16.9396 17.4917C16.5198 17.0192 16.1319 16.5828 15.8009 16.6859C15.2451 16.8594 15.2619 18.0345 15.2619 18.0345C15.2619 18.0345 15.2663 18.2861 15.1399 18.4195Z" fill="#3E8E31"/>
</svg>
