<svg width="100" height="100" viewBox="0 0 100 100" fill="none" xmlns="http://www.w3.org/2000/svg">
<circle cx="50" cy="50" r="49" stroke="#FBD54F" stroke-width="2"/>
<path d="M68 67.6968V57.8592C68 56.6296 68 55.1949 64.1059 54.9899C58.7444 54.785 48.2919 53.5553 48.1199 42.8979C48.0504 38.594 47.0622 32.4454 40.5367 32.4454H33.1585C30.8712 32.4454 27.174 33.0193 27.01 37.7741V52.3256C27.01 55.3998 26.7722 54.9899 28.6168 54.9899C29.8136 54.9899 30.6991 55.8097 30.6991 57.8592V72.0008C30.6991 75.4849 35.962 76.5097 37.4296 73.4354M37.4296 73.4354V54.785M37.4296 73.4354C38.0444 74.6651 39.0363 75.28 40.5038 75.28C42.3484 75.28 43.3731 74.8701 43.5781 73.2305V54.9899M55.4981 57.8592C54.9148 60.3716 54.9208 64.2687 57.5476 65.9518M64.1059 75.28V66.2622C61.0101 67.1065 58.9207 66.8317 57.5476 65.9518M57.5476 65.9518V75.28" stroke="#FBD54F" stroke-width="2"/>
<circle cx="37.2575" cy="21.3782" r="6.3782" stroke="#FBD54F" stroke-width="2"/>
<circle cx="60.8268" cy="44.5376" r="4.12375" stroke="#FBD54F" stroke-width="2"/>
</svg>
