<svg width="100" height="100" viewBox="0 0 100 100" fill="none" xmlns="http://www.w3.org/2000/svg">
<circle cx="50" cy="50" r="49" stroke="#F8DB59" stroke-width="2"/>
<path d="M63.7273 49.7185C63.7879 54.5648 61.2545 64.401 50.6364 64.9754M63.7273 49.7185V32.6668M63.7273 49.7185C69.5455 50.2929 71 46.1287 71 43.9748V32.6668H63.7273M50.6364 64.9754C37.3636 65.6933 36.6364 50.975 36.6364 49.7185M50.6364 64.9754V72.873M36.6364 49.7185C36.6364 48.7134 36.6364 34.8207 36.6364 28H63.7273V32.6668M36.6364 49.7185C30.5273 51.0109 29 45.7099 29 42.8978V32.6668H32.6364M50.6364 72.873H57.7273C58.3333 72.8132 59.5455 73.1243 59.5455 74.8474C59.5455 76.5705 59.5455 78.3176 59.5455 78.9757H69.1818H48.4545M50.6364 72.873C49.0606 72.873 45.3636 72.873 43.1818 72.873C40.4545 72.873 41.1818 74.3089 41.1818 76.8218C41.1818 78.8321 39.7273 79.0954 39 78.9757H30.8182" stroke="#F8DB59" stroke-width="2"/>
</svg>
