<svg width="100" height="100" viewBox="0 0 100 100" fill="none" xmlns="http://www.w3.org/2000/svg">
<circle cx="50" cy="50" r="49" stroke="#FCA8A3" stroke-width="2"/>
<path d="M55.4557 24.5748C58.2667 20.7586 62.6879 22.9259 62.6879 26.3659V45.8893V32.814C66.3333 29.7893 69.9201 33.0403 69.9201 36.0381C69.9804 44.5758 70.0648 63.4066 69.9201 70.4279C69.7755 77.4491 63.2303 79.6821 59.9758 79.9209C57.4445 79.9806 51.6226 80.0642 48.585 79.9209C45.5475 79.7776 42.6184 76.876 41.5336 75.4431L26.7075 56.6361C25.9843 55.3226 25.1888 52.3016 27.7924 50.7254C30.396 49.1492 33.3371 51.3821 34.4822 52.6956L39.5448 58.7855V27.978C40.3 22.2035 47.3543 23.6484 47.3194 27.978M55.4557 24.5748V45.8893M55.4557 24.5748C55.3351 23.2613 54.6 20.0361 51.3 20.0361C49.1 19.7652 47.1748 20.9925 47.3194 24.5748V27.978M47.3194 45.8893V27.978M54.9132 59.3228C55.2146 57.9496 56.649 55.4898 59.9758 56.6361C64.1333 58.0687 63.7667 61.9386 61.0606 65.4127C58.6244 68.5404 55.8173 70.6667 54.9132 71.5026L48.585 65.4127C46.3551 63.1439 45.3987 58.5764 50.0315 56.6361C52.0333 55.7977 54.4793 56.6003 54.9132 59.3228Z" stroke="#FCA8A3" stroke-width="2"/>
</svg>
